# xmcd CD database file
#
# Track frame offsets:
#	150
#	28293
#	45125
#	62035
#	82449
#	97986
#	114315
#	154139
#	174403
#	187092
#	199189
#	216365
#	241656
#	263914
#
# Disc length: 3945 seconds
#
# Revision: 0
# Processed by: cddbd v1.5.2PL0 Copyright (c) Steve Scherf et al.
# Submitted via: CDex 1.70beta2
#
DISCID=c10f670e
DTITLE=Tandem: Ralph Schmidt, Thomas Peter-Horas - Wintersonne
DYEAR=1995
DGENRE=Jazz
TTITLE0=African Morning
TTITLE1=Move
TTITLE2=Wintersonne
TTITLE3=Chattanooga Choo Choo
TTITLE4=Rhein-Main in time
TTITLE5=Twilight
TTITLE6=Wolkenschloss
TTITLE7=Schäne Aussichten
TTITLE8=Take the a train
TTITLE9=Simple song no. 7
TTITLE10=Mr. Miller waiting for his grass to grow
TTITLE11=Mr. Miller on the highway
TTITLE12=Kairon
TTITLE13=Simple Song No. 1
EXTD=YEAR: 1995
EXTT0=
EXTT1=
EXTT2=
EXTT3=
EXTT4=
EXTT5=
EXTT6=
EXTT7=
EXTT8=
EXTT9=
EXTT10=
EXTT11=
EXTT12=
EXTT13=
PLAYORDER=
